<svg width="21" height="21" viewBox="0 0 21 21" fill="none" xmlns="http://www.w3.org/2000/svg">
<g clip-path="url(#clip0_1437_556)">
<path d="M21 16.2717C20.2361 16.466 19.7636 16.2803 19.3397 15.6437L16.3249 11.4726L15.8891 10.8951L12.3683 15.6575C11.9661 16.2304 11.5441 16.4798 10.7933 16.277L15.3018 10.225L11.1044 4.75848C11.8263 4.61804 12.325 4.68957 12.768 5.33598L15.895 9.55895L19.045 5.35895C19.4486 4.78604 19.8824 4.56817 20.6069 4.77948L18.9794 6.93723L16.7744 9.80832C16.5119 10.1364 16.548 10.3609 16.7895 10.6779L21 16.2717ZM0.00525 10.124L0.374062 8.3101C1.37812 4.72042 5.49281 3.22876 8.33044 5.44688C9.98878 6.75151 10.4009 8.59688 10.3189 10.6641H0.97125C0.830813 14.385 3.50897 16.6307 6.92344 15.4849C8.12109 15.0826 8.82656 14.1448 9.17962 12.9714C9.35878 12.3834 9.65541 12.2916 10.208 12.4596C9.92578 13.9269 9.28922 15.1528 7.94391 15.92C5.93381 17.0684 3.06469 16.697 1.55531 15.101C0.65625 14.175 0.284813 13.0016 0.118125 11.7469C0.091875 11.5395 0.039375 11.342 0 11.1431C0.0035 10.8036 0.00525 10.4641 0.00525 10.1246V10.124ZM0.988313 9.8746H9.43556C9.38044 7.18398 7.70503 5.27298 5.41537 5.25657C2.90194 5.23688 1.09725 7.1026 0.988313 9.8746Z" fill="white"/>
</g>
<defs>
<clipPath id="clip0_1437_556">
<rect width="21" height="21" fill="white"/>
</clipPath>
</defs>
</svg>
