<svg width="21" height="19" viewBox="0 0 21 19" fill="none" xmlns="http://www.w3.org/2000/svg">
<g clip-path="url(#clip0_1437_1465)">
<path d="M10.4997 11.2137C11.5334 11.2137 12.3714 10.3757 12.3714 9.34195C12.3714 8.30822 11.5334 7.47021 10.4997 7.47021C9.46594 7.47021 8.62793 8.30822 8.62793 9.34195C8.62793 10.3757 9.46594 11.2137 10.4997 11.2137Z" fill="#61DAFB"/>
<path d="M10.4995 13.1764C16.0464 13.1764 20.543 11.4595 20.543 9.34162C20.543 7.22373 16.0464 5.50684 10.4995 5.50684C4.95267 5.50684 0.456055 7.22373 0.456055 9.34162C0.456055 11.4595 4.95267 13.1764 10.4995 13.1764Z" stroke="#61DAFB"/>
<path d="M7.17853 11.2593C9.95196 16.063 13.6871 19.0987 15.5213 18.0398C17.3554 16.9808 16.594 12.2282 13.8206 7.42447C11.0471 2.62075 7.31196 -0.414992 5.47781 0.643954C3.64366 1.7029 4.4051 6.45553 7.17853 11.2593Z" stroke="#61DAFB"/>
<path d="M7.179 7.42465C4.40557 12.2284 3.64413 16.981 5.47828 18.0399C7.31242 19.0989 11.0476 16.0632 13.821 11.2594C16.5945 6.45571 17.3559 1.70308 15.5218 0.644132C13.6876 -0.414814 9.95243 2.62093 7.179 7.42465Z" stroke="#61DAFB"/>
</g>
<defs>
<clipPath id="clip0_1437_1465">
<rect width="21" height="18.684" fill="white"/>
</clipPath>
</defs>
</svg>
