<svg width="24" height="24" viewBox="0 0 24 24" fill="none" xmlns="http://www.w3.org/2000/svg">
<rect x="0.75" y="0.75" width="22.5" height="22.5" rx="11.25" stroke="url(#paint0_linear_1437_906)" stroke-width="1.5"/>
<path d="M12 15.5L15.5 12L17 13.5L13.5 17L12 15.5Z" stroke="url(#paint1_linear_1437_906)" stroke-linecap="round" stroke-linejoin="round"/>
<path d="M15 12.5L14.25 8.75L7 7L8.75 14.25L12.5 15L15 12.5Z" stroke="url(#paint2_linear_1437_906)" stroke-linecap="round" stroke-linejoin="round"/>
<path d="M7 7L10.793 10.793" stroke="url(#paint3_linear_1437_906)" stroke-linecap="round" stroke-linejoin="round"/>
<path d="M11.5 12.5C12.0523 12.5 12.5 12.0523 12.5 11.5C12.5 10.9477 12.0523 10.5 11.5 10.5C10.9477 10.5 10.5 10.9477 10.5 11.5C10.5 12.0523 10.9477 12.5 11.5 12.5Z" stroke="url(#paint4_linear_1437_906)" stroke-linecap="round" stroke-linejoin="round"/>
<defs>
<linearGradient id="paint0_linear_1437_906" x1="0" y1="12" x2="24" y2="12" gradientUnits="userSpaceOnUse">
<stop stop-color="#5000F0"/>
<stop offset="0.711538" stop-color="#7C00F0"/>
</linearGradient>
<linearGradient id="paint1_linear_1437_906" x1="12" y1="14.5" x2="17" y2="14.5" gradientUnits="userSpaceOnUse">
<stop stop-color="#5000F0"/>
<stop offset="0.711538" stop-color="#7C00F0"/>
</linearGradient>
<linearGradient id="paint2_linear_1437_906" x1="7" y1="11" x2="15" y2="11" gradientUnits="userSpaceOnUse">
<stop stop-color="#5000F0"/>
<stop offset="0.711538" stop-color="#7C00F0"/>
</linearGradient>
<linearGradient id="paint3_linear_1437_906" x1="7" y1="8.8965" x2="10.793" y2="8.8965" gradientUnits="userSpaceOnUse">
<stop stop-color="#5000F0"/>
<stop offset="0.711538" stop-color="#7C00F0"/>
</linearGradient>
<linearGradient id="paint4_linear_1437_906" x1="10.5" y1="11.5" x2="12.5" y2="11.5" gradientUnits="userSpaceOnUse">
<stop stop-color="#5000F0"/>
<stop offset="0.711538" stop-color="#7C00F0"/>
</linearGradient>
</defs>
</svg>
