<svg width="12" height="12" viewBox="0 0 12 12" fill="none" xmlns="http://www.w3.org/2000/svg">
<g clip-path="url(#clip0_425_448)">
<path d="M4.5 9.49972C2 10.2497 2 8.24972 1 7.99972M8 10.9997V9.06472C8.01876 8.82631 7.98654 8.58663 7.90551 8.36162C7.82447 8.13661 7.69647 7.93144 7.53 7.75973C9.1 7.58473 10.75 6.98972 10.75 4.25972C10.7499 3.56164 10.4813 2.89032 10 2.38472C10.2279 1.77398 10.2118 1.0989 9.955 0.499725C9.955 0.499725 9.365 0.324725 8 1.23972C6.854 0.929136 5.646 0.929136 4.5 1.23972C3.135 0.324725 2.545 0.499725 2.545 0.499725C2.28819 1.0989 2.27207 1.77398 2.5 2.38472C2.01506 2.89407 1.74626 3.57146 1.75 4.27472C1.75 6.98472 3.4 7.57972 4.97 7.77472C4.8055 7.94471 4.67863 8.14743 4.59765 8.36968C4.51668 8.59194 4.4834 8.82876 4.5 9.06472V10.9997" stroke="#773EC6" stroke-linecap="round" stroke-linejoin="round"/>
</g>
<defs>
<clipPath id="clip0_425_448">
<rect width="12" height="12" fill="white"/>
</clipPath>
</defs>
</svg>
