<svg width="29" height="29" viewBox="0 0 29 29" fill="none" xmlns="http://www.w3.org/2000/svg">
<path d="M14.25 0.75C21.7058 0.75 27.75 6.79416 27.75 14.25C27.75 21.7058 21.7058 27.75 14.25 27.75C6.79416 27.75 0.75 21.7058 0.75 14.25C0.75 6.79416 6.79416 0.75 14.25 0.75Z" stroke="url(#paint0_linear_1437_955)" stroke-width="1.5"/>
<path d="M14.25 16.5C17.1495 16.5 19.5 14.1495 19.5 11.25C19.5 8.35051 17.1495 6 14.25 6C11.3505 6 9 8.35051 9 11.25C9 14.1495 11.3505 16.5 14.25 16.5Z" stroke="url(#paint1_linear_1437_955)" stroke-width="1.5" stroke-linecap="round" stroke-linejoin="round"/>
<path d="M11.4075 15.6677L10.5 22.5002L14.25 20.2502L18 22.5002L17.0925 15.6602" stroke="url(#paint2_linear_1437_955)" stroke-width="1.5" stroke-linecap="round" stroke-linejoin="round"/>
<defs>
<linearGradient id="paint0_linear_1437_955" x1="0" y1="14.25" x2="28.5" y2="14.25" gradientUnits="userSpaceOnUse">
<stop stop-color="#5000F0"/>
<stop offset="0.711538" stop-color="#7C00F0"/>
</linearGradient>
<linearGradient id="paint1_linear_1437_955" x1="9" y1="11.25" x2="19.5" y2="11.25" gradientUnits="userSpaceOnUse">
<stop stop-color="#5000F0"/>
<stop offset="0.711538" stop-color="#7C00F0"/>
</linearGradient>
<linearGradient id="paint2_linear_1437_955" x1="10.5" y1="19.0802" x2="18" y2="19.0802" gradientUnits="userSpaceOnUse">
<stop stop-color="#5000F0"/>
<stop offset="0.711538" stop-color="#7C00F0"/>
</linearGradient>
</defs>
</svg>
