<svg width="39" height="39" viewBox="0 0 39 39" fill="none" xmlns="http://www.w3.org/2000/svg">
<g filter="url(#filter0_df_1332_3268)">
<path d="M29 19.5C29 19.5 19.25 19.5 19.5 29C19.25 19.5 10 19.5 10 19.5C10 19.5 19.5 19.4999 19.5 10C19.5 19.5 29 19.5 29 19.5Z" fill="#2D2B52"/>
</g>
<g filter="url(#filter1_f_1332_3268)">
<path d="M29 19.5C29 19.5 19.25 19.5 19.5 29C19.25 19.5 10 19.5 10 19.5C10 19.5 19.5 19.4999 19.5 10C19.5 19.5 29 19.5 29 19.5Z" fill="#D0CFE4"/>
<path d="M29 19.5C29 19.5 19.25 19.5 19.5 29C19.25 19.5 10 19.5 10 19.5C10 19.5 19.5 19.4999 19.5 10C19.5 19.5 29 19.5 29 19.5Z" stroke="white" stroke-linejoin="round"/>
</g>
<g filter="url(#filter2_if_1332_3268)">
<path d="M19 10C19 9.72386 19.2239 9.5 19.5 9.5C19.7761 9.5 20 9.72386 20 10C20 12.2875 20.5704 13.9699 21.4004 15.2148C22.2324 16.4629 23.3454 17.3011 24.4736 17.8652C25.6037 18.4303 26.7398 18.7154 27.5977 18.8584C28.0251 18.9296 28.3805 18.9648 28.627 18.9824C28.7501 18.9912 28.8465 18.9959 28.9102 18.998C28.9417 18.9991 28.9653 18.9998 28.9805 19H29C29.2761 19 29.5 19.2239 29.5 19.5C29.5 19.7761 29.2761 20 29 20H28.9795C28.9638 20.0002 28.9395 20.0009 28.9072 20.002C28.8416 20.0041 28.7427 20.0088 28.6162 20.0176C28.3631 20.0352 27.9983 20.0702 27.5605 20.1416C26.6825 20.2848 25.5232 20.5706 24.3779 21.1357C23.2343 21.7001 22.1158 22.5377 21.2969 23.7822C20.4805 25.0232 19.9399 26.7023 20 28.9873C20.007 29.2631 19.7886 29.4927 19.5127 29.5C19.2369 29.507 19.0073 29.2886 19 29.0127C18.9397 26.723 18.3394 25.0368 17.4961 23.7881C16.651 22.5369 15.5432 21.6976 14.4307 21.1338C13.3159 20.569 12.2028 20.2843 11.3652 20.1416C10.9475 20.0704 10.6011 20.0351 10.3613 20.0176C10.2416 20.0088 10.1487 20.0041 10.0869 20.002C10.0562 20.0009 10.0332 20.0002 10.0186 20H10C9.72386 20 9.5 19.7761 9.5 19.5C9.5 19.2239 9.72386 19 10 19H10.0195C10.0347 18.9998 10.0583 18.9991 10.0898 18.998C10.1535 18.9959 10.2499 18.9912 10.373 18.9824C10.6195 18.9648 10.9749 18.9296 11.4023 18.8584C12.2602 18.7154 13.3963 18.4303 14.5264 17.8652C15.6545 17.3011 16.7676 16.4629 17.5996 15.2148C18.4296 13.9699 19 12.2875 19 10Z" stroke="#F53DA2" stroke-linejoin="round"/>
</g>
<path d="M29 19.5C29 19.5 19.25 19.5 19.5 29C19.25 19.5 10 19.5 10 19.5C10 19.5 19.5 19.4999 19.5 10C19.5 19.5 29 19.5 29 19.5Z" fill="white" stroke="white" stroke-linejoin="round"/>
<defs>
<filter id="filter0_df_1332_3268" x="0" y="0" width="39" height="39" filterUnits="userSpaceOnUse" color-interpolation-filters="sRGB">
<feFlood flood-opacity="0" result="BackgroundImageFix"/>
<feColorMatrix in="SourceAlpha" type="matrix" values="0 0 0 0 0 0 0 0 0 0 0 0 0 0 0 0 0 0 127 0" result="hardAlpha"/>
<feOffset/>
<feGaussianBlur stdDeviation="5"/>
<feComposite in2="hardAlpha" operator="out"/>
<feColorMatrix type="matrix" values="0 0 0 0 0.341176 0 0 0 0 0.321569 0 0 0 0 0.615686 0 0 0 1 0"/>
<feBlend mode="normal" in2="BackgroundImageFix" result="effect1_dropShadow_1332_3268"/>
<feBlend mode="normal" in="SourceGraphic" in2="effect1_dropShadow_1332_3268" result="shape"/>
<feGaussianBlur stdDeviation="5" result="effect2_foregroundBlur_1332_3268"/>
</filter>
<filter id="filter1_f_1332_3268" x="6.5" y="6.5" width="26" height="26" filterUnits="userSpaceOnUse" color-interpolation-filters="sRGB">
<feFlood flood-opacity="0" result="BackgroundImageFix"/>
<feBlend mode="normal" in="SourceGraphic" in2="BackgroundImageFix" result="shape"/>
<feGaussianBlur stdDeviation="1.5" result="effect1_foregroundBlur_1332_3268"/>
</filter>
<filter id="filter2_if_1332_3268" x="8" y="8" width="23" height="26" filterUnits="userSpaceOnUse" color-interpolation-filters="sRGB">
<feFlood flood-opacity="0" result="BackgroundImageFix"/>
<feBlend mode="normal" in="SourceGraphic" in2="BackgroundImageFix" result="shape"/>
<feColorMatrix in="SourceAlpha" type="matrix" values="0 0 0 0 0 0 0 0 0 0 0 0 0 0 0 0 0 0 127 0" result="hardAlpha"/>
<feOffset dy="4"/>
<feGaussianBlur stdDeviation="10"/>
<feComposite in2="hardAlpha" operator="arithmetic" k2="-1" k3="1"/>
<feColorMatrix type="matrix" values="0 0 0 0 0.815686 0 0 0 0 0.811765 0 0 0 0 0.894118 0 0 0 1 0"/>
<feBlend mode="normal" in2="shape" result="effect1_innerShadow_1332_3268"/>
<feGaussianBlur stdDeviation="0.5" result="effect2_foregroundBlur_1332_3268"/>
</filter>
</defs>
</svg>
