<svg width="285" height="55" viewBox="0 0 285 55" fill="none" xmlns="http://www.w3.org/2000/svg">
<path d="M27 54.5C40.8071 54.5 52 43.3071 52 29.5C52 15.6929 40.8071 4.5 27 4.5C13.1929 4.5 2 15.6929 2 29.5C2 43.3071 13.1929 54.5 27 54.5Z" stroke="white" stroke-miterlimit="10"/>
<path d="M0 5.5H7.76369L12.7354 0.5H42.583L47.141 5.4334H55" stroke="white" stroke-miterlimit="10"/>
<path d="M25 9.5V49.5" stroke="white" stroke-miterlimit="10"/>
<path d="M25 29.5L7 32.5" stroke="white" stroke-miterlimit="10"/>
<path d="M19.1662 48.5C15.5573 46.9334 12.4795 44.3177 10.3162 40.9787C8.15294 37.6396 6.99966 33.7248 7 29.7216C7 19.2384 15.1671 9.20348 25 9.5067" stroke="white" stroke-miterlimit="10"/>
<path d="M29 30.5V9.75431V9.5" stroke="white" stroke-miterlimit="10"/>
<path d="M29 29.5L47 32.5" stroke="white" stroke-miterlimit="10"/>
<path d="M45 19.5C40.8653 12.3539 34.1859 9.42514 29 9.50145" stroke="white" stroke-miterlimit="10"/>
<path d="M34 48.5C38.9704 46.512 45.747 40.13 47 31.5" stroke="white" stroke-miterlimit="10"/>
<path d="M108.954 25.25H102.226L101.047 27.982C100.81 28.4531 100.662 28.9636 100.611 29.4879C100.614 29.6254 100.65 29.7602 100.716 29.8811C100.781 30.0021 100.875 30.1056 100.989 30.1833C101.252 30.3846 101.777 30.5127 102.622 30.5729V31.0461H97.1484V30.5729C97.8765 30.4439 98.3464 30.2783 98.5582 30.0761C98.9939 29.6683 99.477 28.8386 100.007 27.5872L106.121 13.3389H106.57L112.621 27.7389C113.106 28.8962 113.543 29.6474 113.934 29.9925C114.406 30.3653 114.99 30.5697 115.593 30.5729V31.0461H108.749V30.5729C109.449 30.538 109.917 30.423 110.154 30.2278C110.266 30.1458 110.358 30.0385 110.422 29.9144C110.485 29.7904 110.518 29.6532 110.518 29.514C110.518 29.1393 110.343 28.5476 109.993 27.7389L108.954 25.25ZM108.597 24.3062L105.646 17.3101L102.622 24.3062H108.597Z" fill="white"/>
<path d="M120.758 12.8945V28.403C120.727 28.894 120.781 29.3865 120.918 29.8592C121.018 30.0887 121.192 30.2789 121.412 30.4004C121.807 30.5551 122.232 30.6186 122.656 30.586V31.0462H116.901V30.586C117.277 30.6142 117.654 30.558 118.004 30.4213C118.213 30.2928 118.374 30.1001 118.463 29.8723C118.606 29.3962 118.663 28.8988 118.631 28.403V17.7834C118.654 16.971 118.625 16.158 118.542 15.3494C118.516 15.1179 118.415 14.9013 118.253 14.7324C118.111 14.6172 117.93 14.5577 117.747 14.5651C117.455 14.5809 117.168 14.6501 116.901 14.769L116.684 14.322L120.183 12.8945H120.758Z" fill="white"/>
<path d="M125.99 23.7547C125.979 25.4977 126.402 26.8589 127.258 27.8384C128.114 28.8179 129.117 29.312 130.269 29.3207C130.99 29.3356 131.696 29.1132 132.277 28.6881C132.844 28.268 133.32 27.5465 133.705 26.5234L134.102 26.7848C133.91 27.977 133.366 29.0855 132.54 29.9691C132.138 30.4317 131.639 30.8003 131.078 31.0489C130.518 31.2974 129.909 31.4197 129.295 31.407C128.608 31.4122 127.928 31.2682 127.303 30.9851C126.678 30.702 126.122 30.2866 125.675 29.7678C124.67 28.675 124.168 27.2048 124.168 25.3574C124.168 23.3565 124.683 21.7974 125.714 20.6802C126.2 20.1356 126.799 19.7029 127.469 19.4121C128.14 19.1214 128.866 18.9796 129.597 18.9966C130.198 18.9765 130.796 19.0812 131.355 19.304C131.913 19.5268 132.418 19.8628 132.839 20.2907C133.684 21.1621 134.107 22.3177 134.107 23.7573L125.99 23.7547ZM125.99 23.0149H131.434C131.434 22.4761 131.345 21.941 131.172 21.4306C130.972 20.9705 130.641 20.5794 130.219 20.3064C129.826 20.044 129.364 19.9022 128.891 19.8985C128.534 19.9008 128.182 19.975 127.854 20.1165C127.527 20.2581 127.232 20.464 126.987 20.7221C126.387 21.342 126.033 22.1574 125.99 23.0175V23.0149Z" fill="white"/>
<path d="M135.194 19.3525H140.72V19.8336C140.461 19.8092 140.201 19.8718 139.982 20.0114C139.913 20.0691 139.859 20.1417 139.822 20.2237C139.786 20.3057 139.769 20.395 139.772 20.4846C139.772 20.6885 139.919 21.0074 140.219 21.4284C140.313 21.5643 140.455 21.7787 140.644 22.0663L141.476 23.3944L142.437 22.0663C143.053 21.2244 143.361 20.6928 143.361 20.4715C143.361 20.3846 143.342 20.2988 143.304 20.2204C143.266 20.1421 143.211 20.0733 143.143 20.0192C142.936 19.8781 142.687 19.8125 142.437 19.8336V19.3604H146.401V19.8336C146.013 19.8495 145.637 19.9687 145.311 20.1787C144.891 20.4663 144.318 21.0955 143.592 22.0663L141.991 24.1996L144.912 28.3826C145.632 29.4127 146.145 30.0323 146.451 30.2414C146.808 30.4645 147.221 30.5857 147.643 30.5918V31.0519H142.117V30.5918C142.437 30.6104 142.754 30.518 143.014 30.3303C143.091 30.2784 143.154 30.2081 143.197 30.1259C143.239 30.0437 143.261 29.9522 143.259 29.8597C143.259 29.6637 142.996 29.1695 142.437 28.3774L140.72 25.8754L138.835 28.3774C138.255 29.1617 137.964 29.6114 137.964 29.7578C137.967 29.8657 137.995 29.9715 138.045 30.0673C138.095 30.1632 138.166 30.2468 138.252 30.312C138.503 30.4942 138.809 30.5863 139.119 30.5735V31.0336H135.286V30.5735C135.577 30.5372 135.855 30.4274 136.092 30.2545C136.417 30.0087 136.964 29.3787 137.733 28.3643L140.195 25.1094L137.964 21.8937C137.332 20.9735 136.843 20.3965 136.496 20.163C136.105 19.9158 135.647 19.7936 135.184 19.8127L135.194 19.3525Z" fill="white"/>
<path d="M155.446 29.3601C154.242 30.2891 153.486 30.8259 153.178 30.9706C152.715 31.1829 152.212 31.2918 151.703 31.2895C151.328 31.3007 150.956 31.2323 150.61 31.0889C150.264 30.9456 149.953 30.7306 149.697 30.4581C149.156 29.8624 148.873 29.0778 148.909 28.2751C148.896 27.756 149.029 27.2435 149.293 26.7954C149.762 26.1098 150.393 25.5489 151.13 25.1614C152.005 24.6525 153.447 24.0311 155.457 23.2973V22.8372C155.457 21.6712 155.271 20.8712 154.9 20.4372C154.696 20.2143 154.444 20.0401 154.163 19.9274C153.883 19.8147 153.58 19.7665 153.278 19.7862C152.811 19.7634 152.353 19.9185 151.997 20.2202C151.847 20.3405 151.726 20.492 151.641 20.6642C151.557 20.8363 151.512 21.0248 151.508 21.2163L151.535 21.9562C151.557 22.2862 151.448 22.6118 151.233 22.8634C151.132 22.9692 151.009 23.0524 150.873 23.1074C150.738 23.1624 150.592 23.1879 150.445 23.1823C150.297 23.189 150.15 23.1626 150.014 23.1051C149.877 23.0477 149.756 22.9606 149.658 22.8503C149.444 22.5975 149.336 22.2728 149.356 21.9431C149.356 21.2137 149.731 20.5392 150.485 19.9274C151.238 19.3156 152.291 19.0071 153.651 19.0071C154.534 18.9725 155.414 19.1519 156.213 19.53C156.72 19.7969 157.116 20.2353 157.328 20.7666C157.484 21.1326 157.561 21.8821 157.559 23.015V26.9836C157.542 27.6675 157.563 28.3518 157.622 29.0333C157.636 29.2202 157.71 29.3975 157.835 29.5379C157.928 29.6209 158.049 29.6665 158.174 29.666C158.3 29.6683 158.424 29.6367 158.533 29.5745C158.906 29.2949 159.253 28.9835 159.57 28.6438V29.3575C158.615 30.6368 157.701 31.2756 156.83 31.2738C156.641 31.2815 156.453 31.2464 156.279 31.1713C156.106 31.0961 155.952 30.9828 155.829 30.8398C155.583 30.5523 155.455 30.059 155.446 29.3601ZM155.446 28.5313V24.0869C154.594 24.4038 153.76 24.766 152.947 25.1719C152.384 25.4536 151.889 25.8542 151.498 26.3457C151.214 26.7357 151.061 27.2052 151.062 27.6869C151.043 28.2466 151.24 28.7922 151.613 29.2111C151.768 29.3984 151.962 29.5498 152.181 29.6546C152.401 29.7594 152.641 29.815 152.884 29.8176C153.533 29.8106 154.387 29.3819 155.446 28.5313Z" fill="white"/>
<path d="M163.869 21.4853C165.244 19.833 166.557 19.0069 167.806 19.0069C168.395 18.9911 168.973 19.1593 169.46 19.4879C169.98 19.8865 170.365 20.4339 170.563 21.0565C170.752 21.5664 170.844 22.3481 170.844 23.4095V28.4003C170.811 28.9091 170.873 29.4194 171.025 29.9062C171.117 30.118 171.276 30.2936 171.479 30.4056C171.847 30.5519 172.244 30.6127 172.639 30.5833V31.0435H166.83V30.5833H167.074C167.62 30.5833 168.003 30.4997 168.221 30.335C168.452 30.1483 168.612 29.8893 168.675 29.6003C168.725 29.2024 168.743 28.8011 168.728 28.4003V23.616C168.728 22.5528 168.589 21.7807 168.31 21.2997C168.168 21.0602 167.961 20.8656 167.712 20.738C167.464 20.6103 167.184 20.555 166.906 20.5781C165.891 20.5781 164.878 21.1315 163.869 22.2383V28.403C163.869 29.1942 163.916 29.684 164.01 29.8722C164.113 30.1004 164.286 30.2901 164.504 30.4134C164.714 30.5284 165.139 30.586 165.78 30.586V31.0461H159.973V30.586H160.235C160.834 30.586 161.238 30.4352 161.448 30.1337C161.658 29.8304 161.763 29.2552 161.763 28.403V24.0631C161.789 23.207 161.757 22.3501 161.666 21.4984C161.634 21.2651 161.528 21.048 161.364 20.8788C161.214 20.7644 161.028 20.7061 160.839 20.7141C160.544 20.7256 160.253 20.7903 159.981 20.9049L159.789 20.4448L163.325 19.0147H163.876L163.869 21.4853Z" fill="white"/>
<path d="M181.864 29.7311C181.385 30.2552 180.816 30.6899 180.184 31.0148C179.631 31.2754 179.026 31.4086 178.415 31.4043C177.134 31.4043 176.014 30.8701 175.057 29.8017C174.1 28.7333 173.621 27.3608 173.621 25.6841C173.618 24.016 174.178 22.3954 175.212 21.0828C176.262 19.6884 177.624 18.9913 179.299 18.9913C179.771 18.9759 180.241 19.0547 180.681 19.2231C181.122 19.3914 181.524 19.646 181.864 19.9717V17.82C181.889 16.9979 181.857 16.175 181.767 15.3573C181.739 15.1213 181.633 14.9013 181.465 14.7324C181.316 14.6155 181.13 14.5561 180.94 14.5651C180.636 14.5829 180.337 14.6518 180.055 14.769L179.89 14.322L183.413 12.8945H183.988V26.4109C183.962 27.2487 183.995 28.0873 184.085 28.9207C184.115 29.1593 184.223 29.3814 184.392 29.5534C184.53 29.6702 184.705 29.7334 184.886 29.7311C185.204 29.7113 185.516 29.6379 185.81 29.5141L185.949 29.9612L182.463 31.4043H181.864V29.7311ZM181.864 28.837V22.8109C181.818 22.2623 181.661 21.7287 181.402 21.2422C181.172 20.7938 180.819 20.4195 180.384 20.1625C180.01 19.9358 179.584 19.8105 179.147 19.7991C178.757 19.8078 178.374 19.9029 178.026 20.0775C177.678 20.2521 177.373 20.5017 177.134 20.8083C176.357 21.6937 175.968 22.9869 175.968 24.688C175.968 26.3891 176.343 27.7067 177.094 28.6409C177.847 29.556 178.684 30.0135 179.606 30.0135C180.394 30.0048 181.147 29.6126 181.864 28.837Z" fill="white"/>
<path d="M190.133 19.0068V21.6368C191.115 19.8852 192.123 19.0085 193.157 19.0068C193.588 18.9924 194.007 19.1463 194.325 19.4355C194.469 19.5574 194.585 19.7089 194.665 19.8794C194.745 20.05 194.786 20.2356 194.787 20.4238C194.79 20.5795 194.763 20.7342 194.705 20.8791C194.648 21.0241 194.563 21.1563 194.454 21.2682C194.354 21.3766 194.232 21.463 194.096 21.522C193.961 21.581 193.814 21.6112 193.666 21.6107C193.292 21.58 192.938 21.4254 192.661 21.1715C192.288 20.8787 192.013 20.7323 191.834 20.7323C191.64 20.7525 191.46 20.8461 191.333 20.9937C190.84 21.4963 190.437 22.0789 190.141 22.7166V28.3218C190.114 28.8226 190.198 29.3231 190.385 29.7885C190.514 30.0381 190.72 30.2398 190.973 30.3636C191.354 30.5378 191.772 30.6167 192.191 30.5937V31.0538H186.172V30.5937C186.634 30.6245 187.095 30.5277 187.505 30.314C187.731 30.1599 187.891 29.9279 187.954 29.663C188.013 29.2527 188.035 28.8379 188.017 28.4238V23.8852C188.042 23.073 188.015 22.26 187.936 21.4512C187.901 21.2327 187.793 21.0325 187.629 20.8839C187.468 20.7626 187.271 20.6999 187.069 20.7061C186.761 20.7146 186.457 20.7793 186.172 20.897L186.043 20.4368L189.595 19.0068H190.133Z" fill="white"/>
<path d="M197.416 23.7554C197.405 25.4983 197.828 26.8595 198.684 27.839C199.539 28.8185 200.543 29.3127 201.695 29.3214C202.416 29.3362 203.122 29.1138 203.703 28.6887C204.27 28.2687 204.746 27.5471 205.131 26.524L205.527 26.7854C205.332 27.9792 204.783 29.0878 203.952 29.9697C203.551 30.4323 203.052 30.801 202.491 31.0495C201.93 31.2981 201.321 31.4203 200.708 31.4077C200.023 31.4109 199.346 31.2661 198.723 30.983C198.1 30.7 197.547 30.2856 197.101 29.7684C196.094 28.6756 195.592 27.2055 195.594 25.358C195.594 23.3571 196.109 21.7981 197.14 20.6809C197.625 20.1379 198.224 19.7065 198.893 19.4167C199.563 19.1269 200.288 18.9855 201.017 19.0024C201.618 18.9824 202.217 19.087 202.775 19.3098C203.333 19.5326 203.839 19.8687 204.259 20.2965C205.105 21.168 205.527 22.3236 205.527 23.7632L197.416 23.7554ZM197.416 23.0155H202.842C202.841 22.4767 202.752 21.9417 202.579 21.4312C202.38 20.9712 202.048 20.5801 201.626 20.307C201.233 20.0446 200.771 19.9028 200.298 19.8992C199.941 19.9015 199.589 19.9756 199.262 20.1172C198.935 20.2587 198.64 20.4647 198.395 20.7227C197.801 21.3454 197.454 22.1605 197.416 23.0181V23.0155Z" fill="white"/>
<path d="M224.871 13.3392V19.3261H224.396C224.303 18.3682 224.026 17.437 223.58 16.5836C223.176 15.8961 222.588 15.3346 221.881 14.9627C221.184 14.5724 220.399 14.3655 219.6 14.3614C218.786 14.3326 217.994 14.6237 217.395 15.1719C217.126 15.4 216.909 15.6827 216.759 16.001C216.608 16.3193 216.528 16.6659 216.523 17.0176C216.524 17.5487 216.72 18.061 217.074 18.4581C217.599 19.0978 218.859 19.9492 220.855 21.0124C222.012 21.595 223.123 22.2627 224.181 23.0098C224.755 23.449 225.224 24.0098 225.554 24.6516C225.869 25.263 226.034 25.9406 226.034 26.6281C226.038 27.2709 225.903 27.9071 225.639 28.4935C225.374 29.0799 224.986 29.6028 224.501 30.0268C223.479 30.9749 222.166 31.449 220.563 31.449C220.079 31.4544 219.595 31.4168 219.117 31.3366C218.559 31.215 218.009 31.0596 217.471 30.8712C216.962 30.6809 216.434 30.5459 215.896 30.4686C215.802 30.4638 215.709 30.4786 215.622 30.5119C215.534 30.5452 215.455 30.5964 215.389 30.6621C215.228 30.8932 215.137 31.1653 215.126 31.4464H214.654V25.5065H215.129C215.35 26.7492 215.648 27.6791 216.024 28.2961C216.448 28.9549 217.045 29.4863 217.749 29.8333C218.533 30.2435 219.407 30.4537 220.293 30.4451C221.362 30.4451 222.207 30.1645 222.826 29.6032C223.117 29.3582 223.351 29.0531 223.511 28.7091C223.672 28.3651 223.755 27.9904 223.755 27.6111C223.748 27.159 223.627 26.716 223.404 26.3222C223.128 25.8449 222.754 25.4314 222.306 25.1091C221.974 24.8564 221.064 24.3144 219.576 23.483C218.474 22.8955 217.415 22.2324 216.405 21.4987C215.822 21.0564 215.335 20.5004 214.974 19.8647C214.648 19.2609 214.481 18.5844 214.489 17.8987C214.484 17.2928 214.61 16.693 214.857 16.1394C215.104 15.5857 215.467 15.091 215.922 14.6882C216.914 13.7761 218.227 13.2912 219.576 13.3392C220.591 13.3607 221.59 13.5912 222.511 14.0163C222.827 14.1824 223.17 14.2904 223.524 14.3353C223.724 14.3439 223.92 14.2734 224.068 14.1392C224.254 13.9091 224.372 13.6321 224.409 13.3392H224.871Z" fill="white"/>
<path d="M230.23 23.7551C230.219 25.498 230.642 26.8592 231.497 27.8387C232.353 28.8182 233.357 29.3123 234.509 29.3211C235.23 29.3359 235.935 29.1135 236.517 28.6884C237.084 28.2683 237.56 27.5468 237.945 26.5237L238.341 26.7851C238.146 27.9788 237.597 29.0874 236.766 29.9694C236.365 30.432 235.866 30.8007 235.305 31.0492C234.744 31.2977 234.135 31.42 233.521 31.4073C232.834 31.4122 232.155 31.2678 231.529 30.9843C230.904 30.7007 230.349 30.2848 229.901 29.7655C228.895 28.6727 228.393 27.2025 228.395 25.3551C228.395 23.3542 228.91 21.7951 229.941 20.6779C230.426 20.135 231.024 19.7036 231.694 19.4138C232.363 19.124 233.088 18.9826 233.818 18.9995C234.419 18.9794 235.018 19.0841 235.576 19.3069C236.134 19.5297 236.64 19.8657 237.06 20.2936C237.906 21.1651 238.328 22.3206 238.328 23.7603L230.23 23.7551ZM230.23 23.0152H235.656C235.655 22.4764 235.566 21.9414 235.393 21.4309C235.194 20.9708 234.862 20.5798 234.44 20.3067C234.047 20.0443 233.585 19.9025 233.112 19.8988C232.755 19.9012 232.403 19.9753 232.076 20.1168C231.749 20.2584 231.454 20.4643 231.209 20.7224C230.615 21.3451 230.268 22.1602 230.23 23.0178V23.0152Z" fill="white"/>
<path d="M243.123 21.3703C244.259 19.8017 245.484 19.0174 246.798 19.0174C248.002 19.0174 249.052 19.5307 249.948 20.5573C250.844 21.5839 251.293 22.986 251.295 24.7638C251.295 26.8396 250.603 28.512 249.218 29.7808C248.156 30.8179 246.731 31.4037 245.244 31.4148C244.534 31.4092 243.83 31.2837 243.162 31.0435C242.397 30.7671 241.671 30.3936 241.002 29.9324V17.8069C241.028 16.9891 240.995 16.1705 240.905 15.3573C240.877 15.1216 240.772 14.9017 240.605 14.7324C240.456 14.6155 240.27 14.5561 240.08 14.5651C239.772 14.5802 239.469 14.6492 239.185 14.769L239.004 14.322L242.529 12.8945H243.107L243.123 21.3703ZM243.123 22.186V29.1821C243.515 29.578 243.972 29.9043 244.475 30.1468C244.921 30.359 245.409 30.4697 245.903 30.471C246.68 30.471 247.404 30.0457 248.076 29.1952C248.749 28.3446 249.084 27.1063 249.082 25.4802C249.082 23.983 248.747 22.8318 248.076 22.0266C247.406 21.2213 246.643 20.8196 245.787 20.8213C245.314 20.8266 244.848 20.945 244.43 21.1664C243.947 21.442 243.507 21.7854 243.123 22.186Z" fill="white"/>
<path d="M257.081 19.0072V28.4033C257.049 28.896 257.104 29.3904 257.241 29.8647C257.335 30.0929 257.502 30.284 257.716 30.4085C258.08 30.5547 258.472 30.6155 258.863 30.5863V31.0464H253.159V30.5863C253.551 30.6165 253.944 30.5602 254.311 30.4216C254.523 30.2931 254.687 30.1007 254.781 29.8726C254.926 29.3969 254.984 28.8993 254.952 28.4033V23.8987C254.977 23.0753 254.94 22.2511 254.839 21.4333C254.806 21.2234 254.707 21.0293 254.556 20.8791C254.405 20.765 254.219 20.7084 254.031 20.7196C253.731 20.7318 253.436 20.7964 253.159 20.9105L252.98 20.4503L256.517 19.0203L257.081 19.0072ZM256.031 12.8948C256.201 12.8944 256.369 12.9275 256.527 12.9922C256.684 13.0568 256.827 13.1518 256.947 13.2715C257.067 13.3913 257.162 13.5335 257.227 13.69C257.292 13.8466 257.325 14.0143 257.325 14.1837C257.328 14.3541 257.296 14.5234 257.231 14.6811C257.166 14.8388 257.069 14.9818 256.947 15.1013C256.829 15.225 256.687 15.3231 256.53 15.3892C256.372 15.4554 256.202 15.4882 256.031 15.4856C255.683 15.4856 255.349 15.3479 255.103 15.1028C254.857 14.8576 254.718 14.5251 254.718 14.1784C254.715 14.0087 254.747 13.8402 254.812 13.6832C254.877 13.5263 254.974 13.3843 255.096 13.266C255.217 13.1453 255.36 13.0501 255.519 12.9863C255.677 12.9225 255.847 12.8914 256.018 12.8948H256.031Z" fill="white"/>
<path d="M264.359 12.8945V28.403C264.328 28.8942 264.383 29.3871 264.522 29.8592C264.621 30.0891 264.793 30.2795 265.013 30.4004C265.408 30.5551 265.834 30.6186 266.257 30.586V31.0462H260.503V30.586C260.878 30.6142 261.255 30.558 261.606 30.4213C261.815 30.2928 261.976 30.1001 262.065 29.8723C262.207 29.3962 262.264 28.8988 262.233 28.403V17.7834C262.256 16.971 262.226 16.158 262.144 15.3494C262.118 15.1179 262.016 14.9013 261.855 14.7324C261.712 14.6172 261.532 14.5577 261.348 14.5651C261.056 14.5809 260.77 14.6501 260.503 14.769L260.285 14.322L263.785 12.8945H264.359Z" fill="white"/>
<path d="M271.655 12.8945V28.403C271.655 29.1351 271.708 29.6205 271.815 29.8592C271.914 30.0898 272.088 30.2805 272.309 30.4004C272.703 30.5554 273.128 30.6189 273.55 30.586V31.0462H267.796V30.586C268.171 30.6142 268.548 30.558 268.899 30.4213C269.108 30.2931 269.271 30.1004 269.361 29.8723C269.5 29.3957 269.556 28.8986 269.526 28.403V17.7834C269.55 16.971 269.52 16.1579 269.437 15.3494C269.412 15.1175 269.311 14.9003 269.148 14.7324C269.005 14.6167 268.825 14.5572 268.641 14.5651C268.349 14.5812 268.063 14.6504 267.796 14.769L267.578 14.322L271.077 12.8945H271.655Z" fill="white"/>
<path d="M276.884 23.7551C276.884 25.498 277.307 26.8592 278.152 27.8387C278.998 28.8182 280.002 29.3123 281.166 29.3211C281.886 29.3359 282.591 29.1135 283.172 28.6884C283.739 28.2683 284.215 27.5468 284.6 26.5237L284.999 26.7851C284.803 27.9787 284.255 29.0873 283.424 29.9694C283.023 30.4316 282.524 30.8001 281.964 31.0486C281.403 31.2972 280.795 31.4196 280.182 31.4073C279.494 31.4126 278.814 31.2684 278.188 30.9848C277.563 30.7013 277.006 30.2851 276.559 29.7655C275.556 28.6727 275.055 27.2025 275.055 25.3551C275.055 23.3542 275.569 21.7951 276.598 20.6779C277.084 20.1351 277.682 19.7038 278.352 19.414C279.021 19.1242 279.746 18.9828 280.476 18.9995C281.077 18.9794 281.675 19.0841 282.233 19.3069C282.792 19.5297 283.297 19.8657 283.718 20.2936C284.565 21.1651 284.988 22.3206 284.988 23.7603L276.884 23.7551ZM276.884 23.0152H282.319C282.317 22.4764 282.229 21.9414 282.056 21.4309C281.855 20.9712 281.522 20.5804 281.1 20.3067C280.712 20.0468 280.256 19.9051 279.788 19.8988C279.431 19.9009 279.079 19.9749 278.752 20.1164C278.424 20.258 278.129 20.4641 277.885 20.7224C277.284 21.3421 276.929 22.1575 276.884 23.0178V23.0152Z" fill="white"/>
<path d="M100.426 54.5757V42.9521H103.991C105.256 42.9521 106.213 43.2755 106.863 43.9221C107.191 44.2603 107.447 44.6617 107.615 45.1018C107.782 45.5419 107.858 46.0114 107.837 46.4816C107.857 46.9469 107.781 47.4115 107.613 47.8464C107.446 48.2813 107.19 48.6772 106.863 49.0097C106.213 49.6441 105.256 49.9622 103.991 49.9639H101.541V54.5757H100.426ZM101.541 49.0123H103.991C104.878 49.0123 105.553 48.7901 106.017 48.3404C106.255 48.0947 106.439 47.8029 106.559 47.483C106.678 47.1631 106.73 46.8222 106.71 46.4816C106.729 46.1346 106.678 45.7874 106.559 45.4608C106.44 45.1342 106.255 44.8349 106.017 44.5809C105.554 44.1156 104.878 43.8829 103.991 43.8829H101.541V49.0123Z" fill="white"/>
<path d="M110.66 54.5761V41.7656H111.747V54.5761H110.66ZM117.152 54.5761V49.3133C117.152 48.3669 116.924 47.6427 116.467 47.1408C116.227 46.8865 115.933 46.6874 115.608 46.5574C115.282 46.4274 114.932 46.3695 114.582 46.3878C114.035 46.3737 113.499 46.5421 113.06 46.8663C112.615 47.2157 112.278 47.6821 112.086 48.2127C111.851 48.8611 111.738 49.547 111.752 50.2362H111.274C111.256 49.3704 111.392 48.5083 111.676 47.6898C111.901 47.0306 112.316 46.4517 112.868 46.0244C113.438 45.6181 114.128 45.4113 114.829 45.4362C115.46 45.4201 116.083 45.5804 116.627 45.899C117.145 46.2155 117.555 46.6789 117.806 47.2297C118.099 47.8875 118.24 48.602 118.221 49.3212V54.5839L117.152 54.5761Z" fill="white"/>
<path d="M124.977 54.7819C124.236 54.7978 123.504 54.6125 122.861 54.246C122.234 53.8722 121.732 53.3218 121.419 52.6643C121.073 51.8555 120.895 50.9854 120.895 50.1061C120.895 49.2269 121.073 48.3567 121.419 47.5479C121.735 46.8958 122.236 46.3503 122.861 45.9793C123.51 45.6276 124.237 45.4434 124.977 45.4434C125.716 45.4434 126.443 45.6276 127.092 45.9793C127.717 46.3497 128.217 46.8954 128.531 47.5479C128.874 48.3575 129.051 49.2274 129.051 50.1061C129.051 50.9848 128.874 51.8547 128.531 52.6643C128.22 53.3221 127.719 53.8728 127.092 54.246C126.449 54.6125 125.718 54.7978 124.977 54.7819ZM124.958 53.8329C125.532 53.8645 126.1 53.7087 126.577 53.3893C127.054 53.0698 127.413 52.6041 127.599 52.063C127.828 51.4359 127.939 50.772 127.925 50.1048C127.925 48.9806 127.684 48.0769 127.203 47.3937C126.721 46.7105 125.986 46.3688 124.995 46.3688C124.423 46.3387 123.857 46.4957 123.383 46.8157C122.909 47.1357 122.553 47.6012 122.37 48.1414C122.14 48.7701 122.029 49.4358 122.042 50.1048C122.042 51.2203 122.283 52.1205 122.766 52.8054C123.249 53.4904 123.98 53.8329 124.958 53.8329Z" fill="white"/>
<path d="M130.695 46.4349V45.6506H136.337V46.4349H130.695ZM134.633 54.7826C134.204 54.7933 133.779 54.7038 133.391 54.5212C133.033 54.3421 132.736 54.0597 132.541 53.7107C132.324 53.3031 132.218 52.8462 132.234 52.3852V43.1016H133.302V52.3512C133.302 53.3674 133.775 53.8754 134.72 53.8754C134.985 53.8761 135.25 53.8445 135.507 53.7813C135.795 53.7093 136.079 53.622 136.358 53.5199L136.51 54.3199C136.21 54.4543 135.9 54.5653 135.583 54.6519C135.275 54.7381 134.956 54.7821 134.636 54.7826H134.633Z" fill="white"/>
<path d="M142.046 54.7819C141.304 54.7974 140.572 54.6122 139.927 54.246C139.3 53.8722 138.799 53.3217 138.486 52.6642C138.14 51.8555 137.961 50.9853 137.961 50.1061C137.961 49.2268 138.14 48.3567 138.486 47.5479C138.802 46.8958 139.303 46.3503 139.927 45.9793C140.577 45.6276 141.305 45.4434 142.044 45.4434C142.784 45.4434 143.512 45.6276 144.162 45.9793C144.785 46.3494 145.285 46.8953 145.597 47.5479C145.94 48.3575 146.117 49.2274 146.117 50.1061C146.117 50.9848 145.94 51.8546 145.597 52.6642C145.287 53.3217 144.787 53.8723 144.162 54.246C143.518 54.6119 142.787 54.7971 142.046 54.7819ZM142.025 53.8329C142.598 53.8638 143.167 53.7077 143.644 53.3884C144.121 53.0691 144.48 52.6038 144.668 52.0629C144.896 51.4356 145.006 50.7718 144.994 50.1048C144.994 48.9806 144.752 48.0769 144.269 47.3937C143.786 46.7104 143.051 46.3688 142.064 46.3688C141.479 46.3459 140.901 46.5089 140.415 46.8342C139.964 47.1628 139.621 47.6179 139.431 48.1414C139.202 48.7703 139.092 49.4359 139.105 50.1048C139.105 51.2202 139.346 52.1205 139.827 52.8054C140.309 53.4904 141.041 53.8329 142.025 53.8329Z" fill="white"/>
<path d="M157.535 54.7821C156.929 54.7875 156.326 54.6993 155.747 54.5207C155.239 54.3653 154.762 54.12 154.34 53.7965C153.961 53.5058 153.647 53.1388 153.419 52.7194C153.204 52.3171 153.092 51.868 153.093 51.4122C153.07 50.9864 153.163 50.5623 153.363 50.1852C153.562 49.8081 153.861 49.4921 154.227 49.271C154.984 48.7987 156.098 48.4989 157.572 48.3716L157.753 49.0671C156.574 49.1926 155.698 49.4409 155.128 49.8122C154.859 49.9749 154.638 50.2058 154.487 50.4814C154.337 50.7569 154.263 51.0673 154.272 51.3808C154.269 51.8128 154.399 52.2354 154.645 52.5912C154.923 52.9829 155.306 53.289 155.75 53.4749C156.319 53.7145 156.933 53.8287 157.551 53.8095C158.31 53.8195 159.06 53.6474 159.738 53.3076C160.413 52.9592 161.019 52.4915 161.525 51.9272C162.076 51.3179 162.546 50.6415 162.925 49.9141C163.331 49.1379 163.671 48.3289 163.941 47.4958L164.752 47.9272C164.464 48.8354 164.098 49.7172 163.657 50.5625C163.245 51.3569 162.729 52.0928 162.121 52.7507C161.548 53.3701 160.861 53.8749 160.097 54.2383C159.295 54.6091 158.419 54.795 157.535 54.7821ZM165.077 54.7821C164.673 54.7842 164.274 54.6948 163.909 54.5207C163.478 54.3012 163.079 54.0241 162.723 53.6971L156.422 48.2383C155.976 47.8633 155.6 47.4128 155.312 46.9076C155.056 46.4577 154.921 45.9499 154.921 45.4331C154.913 44.939 155.062 44.4552 155.346 44.0501C155.649 43.6324 156.062 43.3066 156.54 43.1089C157.113 42.8726 157.729 42.7577 158.349 42.7716C158.93 42.7591 159.507 42.8761 160.037 43.1141C160.496 43.3185 160.893 43.6416 161.184 44.0501C161.462 44.444 161.608 44.9151 161.602 45.3965C161.604 45.8398 161.495 46.2767 161.284 46.6671C161.026 47.1153 160.673 47.5024 160.25 47.8017C159.648 48.2316 158.998 48.5896 158.312 48.8684L157.687 48.2592C158.308 47.9984 158.893 47.662 159.431 47.2579C159.76 47.0138 160.025 46.6946 160.205 46.3272C160.332 46.0339 160.398 45.7183 160.399 45.3991C160.403 45.1655 160.355 44.934 160.258 44.7214C160.161 44.5089 160.017 44.3206 159.837 44.1703C159.423 43.8273 158.895 43.6511 158.357 43.6762C157.608 43.6762 157.046 43.8697 156.672 44.2566C156.493 44.4297 156.352 44.6367 156.255 44.8653C156.159 45.0938 156.109 45.3394 156.11 45.5873C156.112 45.9518 156.202 46.3103 156.372 46.6331C156.597 47.0344 156.896 47.3894 157.254 47.6788L163.597 53.169C163.812 53.3576 164.048 53.5208 164.3 53.6553C164.53 53.7578 164.781 53.807 165.033 53.7991C165.196 53.7994 165.357 53.7672 165.507 53.7043C165.657 53.6414 165.793 53.5492 165.907 53.4331C166.169 53.1873 166.314 52.7716 166.366 52.1808H167.453C167.448 52.8761 167.212 53.5502 166.781 54.0971C166.566 54.3302 166.301 54.5125 166.007 54.631C165.712 54.7495 165.395 54.8011 165.077 54.7821Z" fill="white"/>
<path d="M177.618 53.4463L181.315 42.9521H182.496L178.251 54.5757H177.127L172.914 42.9521H174.088L177.781 53.4463H177.618Z" fill="white"/>
<path d="M185.415 43.2894C185.311 43.2939 185.207 43.2773 185.109 43.2404C185.012 43.2035 184.923 43.1473 184.848 43.075C184.776 43.0039 184.719 42.9186 184.682 42.8245C184.644 42.7305 184.627 42.6297 184.63 42.5286C184.624 42.4307 184.64 42.3326 184.678 42.242C184.716 42.1514 184.774 42.0705 184.848 42.0057C185.012 41.8804 185.213 41.8125 185.419 41.8125C185.626 41.8125 185.826 41.8804 185.99 42.0057C186.061 42.0723 186.116 42.1537 186.152 42.2441C186.188 42.3345 186.203 42.4316 186.197 42.5286C186.203 42.632 186.186 42.7354 186.148 42.8318C186.11 42.9283 186.052 43.0155 185.978 43.0876C185.903 43.1597 185.814 43.215 185.716 43.2498C185.618 43.2846 185.513 43.2981 185.41 43.2894H185.415ZM184.866 54.5757V45.6345H185.961V54.5757H184.866Z" fill="white"/>
<path d="M193.325 54.7819C192.626 54.7852 191.94 54.5843 191.354 54.2042C190.735 53.798 190.237 53.2336 189.913 52.5702C189.561 51.789 189.379 50.9426 189.379 50.0865C189.379 49.2304 189.561 48.384 189.913 47.6028C190.232 46.9522 190.722 46.3995 191.33 46.0028C191.908 45.6344 192.579 45.4401 193.265 45.4434C193.875 45.4331 194.475 45.5983 194.992 45.9192C195.508 46.249 195.918 46.7189 196.174 47.2734C196.47 47.9341 196.613 48.6523 196.594 49.3754H196.095C196.115 48.8007 195.983 48.2309 195.712 47.7231C195.478 47.3037 195.133 46.9563 194.714 46.7192C194.313 46.4966 193.861 46.3805 193.402 46.3819C192.893 46.3807 192.396 46.5349 191.979 46.8238C191.522 47.1445 191.16 47.5803 190.929 48.0865C190.645 48.7088 190.507 49.3875 190.527 50.0708C190.508 50.7636 190.643 51.452 190.923 52.0865C191.15 52.5997 191.513 53.0417 191.973 53.3649C192.396 53.6544 192.897 53.8085 193.409 53.8068C193.857 53.8051 194.296 53.689 194.685 53.4695C195.107 53.2321 195.456 52.8851 195.696 52.4656C195.975 51.968 196.113 51.404 196.095 50.8342H196.594C196.614 51.5658 196.468 52.2925 196.166 52.9597C195.912 53.5121 195.505 53.981 194.992 54.3113C194.494 54.6252 193.915 54.7887 193.325 54.7819ZM196.255 54.5754L196.095 52.5414V41.7754H197.182V54.5858L196.255 54.5754Z" fill="white"/>
<path d="M204.151 54.7823C203.417 54.7967 202.697 54.5878 202.085 54.1836C201.477 53.7717 200.993 53.2034 200.683 52.5391C200.327 51.7905 200.147 50.9703 200.158 50.1418C200.135 49.2744 200.308 48.413 200.665 47.6215C200.96 46.9521 201.45 46.3861 202.072 45.9965C202.693 45.607 203.417 45.4117 204.151 45.4359C204.74 45.4181 205.322 45.5562 205.839 45.8359C206.298 46.0991 206.682 46.4731 206.958 46.9235C207.249 47.4016 207.452 47.9274 207.559 48.4764C207.675 49.0651 207.72 49.6653 207.695 50.2646H201.08V49.5117H207.039L206.606 49.794C206.624 49.3866 206.6 48.9783 206.535 48.5757C206.473 48.1861 206.348 47.8091 206.165 47.4594C205.99 47.1264 205.731 46.8444 205.414 46.6411C205.04 46.4202 204.609 46.3121 204.175 46.33C203.599 46.3098 203.033 46.4839 202.568 46.8241C202.138 47.1567 201.807 47.5995 201.61 48.1052C201.397 48.6392 201.289 49.209 201.292 49.7836V50.2463C201.284 50.8758 201.391 51.5015 201.61 52.0921C201.797 52.6099 202.128 53.0635 202.566 53.3993C203.043 53.714 203.603 53.8818 204.176 53.8818C204.749 53.8818 205.309 53.714 205.787 53.3993C206.002 53.2243 206.18 53.0076 206.309 52.7622C206.438 52.5169 206.516 52.248 206.538 51.9718H207.711C207.635 52.525 207.418 53.0497 207.081 53.496C206.759 53.9157 206.335 54.2475 205.85 54.4607C205.313 54.6875 204.734 54.7972 204.151 54.7823ZM203.414 44.0163L202.847 43.564L205.842 40.3535L206.645 41.0123L203.414 44.0163Z" fill="white"/>
<path d="M213.813 54.7819C213.072 54.7971 212.34 54.6119 211.697 54.246C211.07 53.8722 210.568 53.3217 210.255 52.6642C209.909 51.8555 209.73 50.9853 209.73 50.1061C209.73 49.2268 209.909 48.3567 210.255 47.5479C210.571 46.8958 211.072 46.3503 211.697 45.9793C212.346 45.6276 213.074 45.4434 213.814 45.4434C214.553 45.4434 215.281 45.6276 215.931 45.9793C216.555 46.3494 217.054 46.8953 217.367 47.5479C217.71 48.3575 217.887 49.2274 217.887 50.1061C217.887 50.9848 217.71 51.8546 217.367 52.6642C217.057 53.3217 216.557 53.8723 215.931 54.246C215.287 54.6122 214.554 54.7974 213.813 54.7819ZM213.794 53.8329C214.368 53.8645 214.936 53.7087 215.413 53.3893C215.89 53.0698 216.248 52.6041 216.435 52.0629C216.665 51.4361 216.777 50.7721 216.763 50.1048C216.763 48.9806 216.522 48.0769 216.039 47.3937C215.558 46.7087 214.821 46.3688 213.834 46.3688C213.248 46.3463 212.67 46.5092 212.182 46.8342C211.732 47.1637 211.391 47.6186 211.2 48.1414C210.972 48.7703 210.861 49.4359 210.875 50.1048C210.875 51.2202 211.116 52.1205 211.597 52.8054C212.078 53.4904 212.811 53.8329 213.794 53.8329Z" fill="white"/>
</svg>
