<svg width="21" height="32" viewBox="0 0 21 32" fill="none" xmlns="http://www.w3.org/2000/svg">
<g clip-path="url(#clip0_1437_802)">
<path d="M5.25 32.0002C8.148 32.0002 10.5 29.6108 10.5 26.6668V21.3335H5.25C2.352 21.3335 0 23.7228 0 26.6668C0 29.6108 2.352 32.0002 5.25 32.0002Z" fill="#0ACF83"/>
<path d="M0 15.9998C0 13.0558 2.352 10.6665 5.25 10.6665H10.5V21.3332H5.25C2.352 21.3332 0 18.9438 0 15.9998Z" fill="#A259FF"/>
<path d="M0 5.33333C0 2.38933 2.352 0 5.25 0H10.5V10.6667H5.25C2.352 10.6667 0 8.27733 0 5.33333Z" fill="#F24E1E"/>
<path d="M10.5 0H15.75C18.648 0 21 2.38933 21 5.33333C21 8.27733 18.648 10.6667 15.75 10.6667H10.5V0Z" fill="#FF7262"/>
<path d="M21 15.9998C21 18.9438 18.648 21.3332 15.75 21.3332C12.852 21.3332 10.5 18.9438 10.5 15.9998C10.5 13.0558 12.852 10.6665 15.75 10.6665C18.648 10.6665 21 13.0558 21 15.9998Z" fill="#1ABCFE"/>
</g>
<defs>
<clipPath id="clip0_1437_802">
<rect width="21" height="32" fill="white"/>
</clipPath>
</defs>
</svg>
