<svg width="21" height="21" viewBox="0 0 21 21" fill="none" xmlns="http://www.w3.org/2000/svg">
<g clip-path="url(#clip0_1437_2210)">
<path d="M10.5 0.259766C4.69875 0.259766 0 4.96114 0 10.7598C0 15.3999 3.00825 19.3348 7.17937 20.7216C7.70437 20.8205 7.89687 20.4959 7.89687 20.2168C7.89687 19.9674 7.88813 19.3068 7.88375 18.4318C4.963 19.0653 4.347 17.023 4.347 17.023C3.86925 15.8111 3.17887 15.4874 3.17887 15.4874C2.22775 14.8364 3.25238 14.8495 3.25238 14.8495C4.30675 14.923 4.86062 15.931 4.86062 15.931C5.79687 17.5366 7.3185 17.0729 7.91875 16.8043C8.01325 16.1253 8.28363 15.6624 8.58375 15.3999C6.25188 15.1374 3.801 14.2344 3.801 10.2111C3.801 9.06489 4.20788 8.12864 4.88162 7.39364C4.7635 7.12852 4.40913 6.06102 4.9735 4.61464C4.9735 4.61464 5.85288 4.33289 7.861 5.69089C8.701 5.45727 9.5935 5.34177 10.486 5.33652C11.3785 5.34177 12.271 5.45727 13.111 5.69089C15.106 4.33289 15.9854 4.61464 15.9854 4.61464C16.5497 6.06102 16.1954 7.12852 16.0904 7.39364C16.7597 8.12864 17.1666 9.06489 17.1666 10.2111C17.1666 14.2449 14.7123 15.133 12.376 15.3911C12.7435 15.7061 13.0848 16.3501 13.0848 17.3336C13.0848 18.7389 13.0716 19.8676 13.0716 20.2089C13.0716 20.4845 13.2554 20.8126 13.7935 20.7076C17.9944 19.3304 21 15.3929 21 10.7598C21 4.96114 16.2986 0.259766 10.5 0.259766Z" fill="white"/>
</g>
<defs>
<clipPath id="clip0_1437_2210">
<rect width="21" height="21" fill="white"/>
</clipPath>
</defs>
</svg>
