<svg width="40" height="40" viewBox="0 0 40 40" fill="none" xmlns="http://www.w3.org/2000/svg">
<rect x="0.5" y="0.5" width="39" height="39" rx="19.5" stroke="url(#paint0_linear_1332_3234)"/>
<path d="M23.369 17.0527C24.7091 17.0527 25.9942 17.5851 26.9418 18.5326C27.8893 19.4802 28.4217 20.7653 28.4217 22.1054V28.0001H25.0532V22.1054C25.0532 21.6587 24.8758 21.2303 24.56 20.9144C24.2441 20.5986 23.8157 20.4212 23.369 20.4212C22.9224 20.4212 22.494 20.5986 22.1781 20.9144C21.8623 21.2303 21.6848 21.6587 21.6848 22.1054V28.0001H18.3164V22.1054C18.3164 20.7653 18.8487 19.4802 19.7963 18.5326C20.7438 17.5851 22.029 17.0527 23.369 17.0527Z" fill="white" stroke="white" stroke-linecap="round" stroke-linejoin="round"/>
<path d="M14.9475 17.8945H11.5791V27.9998H14.9475V17.8945Z" fill="white" stroke="white" stroke-linecap="round" stroke-linejoin="round"/>
<path d="M13.2633 15.3684C14.1935 15.3684 14.9475 14.6144 14.9475 13.6842C14.9475 12.754 14.1935 12 13.2633 12C12.3331 12 11.5791 12.754 11.5791 13.6842C11.5791 14.6144 12.3331 15.3684 13.2633 15.3684Z" fill="white" stroke="white" stroke-linecap="round" stroke-linejoin="round"/>
<defs>
<linearGradient id="paint0_linear_1332_3234" x1="0" y1="20" x2="40" y2="20" gradientUnits="userSpaceOnUse">
<stop stop-color="#5000F0"/>
<stop offset="1" stop-color="#7C00F0"/>
</linearGradient>
</defs>
</svg>
