<svg width="21" height="21" viewBox="0 0 21 21" fill="none" xmlns="http://www.w3.org/2000/svg">
<g clip-path="url(#clip0_1437_2206)">
<path d="M9.8135 0.0163881C9.76838 0.0204893 9.62484 0.0348434 9.49566 0.0450963C6.51616 0.313722 3.72532 1.92138 1.95772 4.39233C0.973441 5.76622 0.343913 7.32466 0.106045 8.97538C0.0219717 9.55159 0.0117188 9.72179 0.0117188 10.5031C0.0117188 11.2843 0.0219717 11.4545 0.106045 12.0307C0.676107 15.9699 3.47925 19.2795 7.28103 20.5058C7.96182 20.7252 8.67952 20.8749 9.49566 20.9651C9.8135 21 11.1874 21 11.5052 20.9651C12.914 20.8093 14.1074 20.4607 15.2844 19.8599C15.4649 19.7676 15.4998 19.743 15.4751 19.7225C15.4587 19.7102 14.6898 18.6787 13.767 17.432L12.0896 15.1661L9.98779 12.0553C8.83127 10.3452 7.8798 8.94667 7.87159 8.94667C7.86339 8.94462 7.85519 10.3267 7.85109 12.0143C7.84494 14.9692 7.84289 15.0882 7.80598 15.1579C7.75266 15.2584 7.71165 15.2994 7.62553 15.3445C7.55991 15.3773 7.50249 15.3834 7.19285 15.3834H6.8381L6.74378 15.324C6.68226 15.285 6.63715 15.2338 6.60639 15.1743L6.56332 15.082L6.56743 10.9706L6.57358 6.85713L6.63715 6.77715C6.66995 6.73409 6.73967 6.67873 6.78889 6.65207C6.87296 6.61106 6.90577 6.60696 7.26052 6.60696C7.67884 6.60696 7.74856 6.62336 7.85724 6.74229C7.888 6.7751 9.02607 8.48939 10.3877 10.5543C11.7492 12.6193 13.6112 15.4388 14.5257 16.823L16.1867 19.339L16.2708 19.2836C17.0151 18.7997 17.8026 18.1107 18.4259 17.393C19.7527 15.8694 20.6078 14.0116 20.8948 12.0307C20.9789 11.4545 20.9892 11.2843 20.9892 10.5031C20.9892 9.72179 20.9789 9.55159 20.8948 8.97538C20.3248 5.03621 17.5216 1.72657 13.7199 0.500325C13.0493 0.282964 12.3357 0.133271 11.536 0.0430457C11.3391 0.0225399 9.98369 -1.65257e-05 9.8135 0.0163881ZM14.1074 6.36089C14.2058 6.4101 14.2858 6.50443 14.3145 6.60285C14.3309 6.65617 14.335 7.79629 14.3309 10.3657L14.3248 14.0526L13.6747 13.056L13.0227 12.0595V9.37934C13.0227 7.6466 13.0309 6.67257 13.0432 6.62541C13.076 6.51058 13.1477 6.42035 13.2462 6.36704C13.3302 6.32397 13.361 6.31987 13.6829 6.31987C13.9864 6.31987 14.0397 6.32398 14.1074 6.36089Z" fill="white"/>
<path d="M16.0842 19.3844C16.0124 19.4295 15.9899 19.4602 16.0535 19.4254C16.0986 19.3987 16.1724 19.3434 16.1601 19.3413C16.1539 19.3413 16.1191 19.3618 16.0842 19.3844ZM15.9427 19.4766C15.9058 19.5054 15.9058 19.5074 15.9509 19.4848C15.9755 19.4725 15.996 19.4582 15.996 19.4541C15.996 19.4377 15.9858 19.4418 15.9427 19.4766ZM15.8402 19.5382C15.8033 19.5669 15.8033 19.5689 15.8484 19.5464C15.873 19.5341 15.8935 19.5197 15.8935 19.5156C15.8935 19.4992 15.8833 19.5033 15.8402 19.5382ZM15.7377 19.5997C15.7008 19.6284 15.7008 19.6304 15.7459 19.6079C15.7705 19.5956 15.791 19.5812 15.791 19.5771C15.791 19.5607 15.7807 19.5648 15.7377 19.5997ZM15.5818 19.6817C15.5039 19.7227 15.508 19.7391 15.5859 19.7002C15.6208 19.6817 15.6474 19.6632 15.6474 19.6591C15.6474 19.6448 15.6454 19.6468 15.5818 19.6817Z" fill="white"/>
</g>
<defs>
<clipPath id="clip0_1437_2206">
<rect width="21" height="21" fill="white"/>
</clipPath>
</defs>
</svg>
