<svg width="21" height="24" viewBox="0 0 21 24" fill="none" xmlns="http://www.w3.org/2000/svg">
<g clip-path="url(#clip0_1437_669)">
<path d="M10.5 23.663C10.1739 23.663 9.86956 23.5761 9.58696 23.4239L6.69565 21.7065C6.26087 21.4674 6.47826 21.3804 6.6087 21.337C7.19565 21.1413 7.30435 21.0978 7.91304 20.75C7.97826 20.7065 8.06522 20.7283 8.13043 20.7717L10.3478 22.0978C10.4348 22.1413 10.5435 22.1413 10.6087 22.0978L19.2826 17.0761C19.3696 17.0326 19.413 16.9457 19.413 16.837V6.81522C19.413 6.70652 19.3696 6.61957 19.2826 6.57609L10.6087 1.57609C10.5217 1.53261 10.413 1.53261 10.3478 1.57609L1.67391 6.57609C1.58696 6.61957 1.54348 6.72826 1.54348 6.81522V16.837C1.54348 16.9239 1.58696 17.0326 1.67391 17.0761L4.04348 18.4457C5.32609 19.0978 6.13043 18.337 6.13043 17.5761V7.68478C6.13043 7.55435 6.23913 7.42391 6.3913 7.42391H7.5C7.63044 7.42391 7.76087 7.53261 7.76087 7.68478V17.5761C7.76087 19.2935 6.82609 20.2935 5.19565 20.2935C4.69565 20.2935 4.30435 20.2935 3.19565 19.75L0.913043 18.4457C0.347826 18.1196 0 17.5109 0 16.8587V6.83696C0 6.18478 0.347826 5.57609 0.913043 5.25L9.58696 0.228261C10.1304 -0.0760869 10.8696 -0.0760869 11.413 0.228261L20.087 5.25C20.6522 5.57609 21 6.18478 21 6.83696V16.8587C21 17.5109 20.6522 18.1196 20.087 18.4457L11.413 23.4674C11.1304 23.5978 10.8043 23.663 10.5 23.663ZM13.1739 16.7717C9.36956 16.7717 8.58696 15.0326 8.58696 13.5543C8.58696 13.4239 8.69565 13.2935 8.84783 13.2935H9.97826C10.1087 13.2935 10.2174 13.3804 10.2174 13.5109C10.3913 14.663 10.8913 15.2283 13.1957 15.2283C15.0217 15.2283 15.8043 14.8152 15.8043 13.837C15.8043 13.2717 15.587 12.8587 12.7391 12.5761C10.3696 12.337 8.8913 11.8152 8.8913 9.92391C8.8913 8.16304 10.3696 7.11957 12.8478 7.11957C15.6304 7.11957 17 8.07609 17.1739 10.163C17.1739 10.2283 17.1522 10.2935 17.1087 10.3587C17.0652 10.4022 17 10.4457 16.9348 10.4457H15.8043C15.6957 10.4457 15.587 10.3587 15.5652 10.25C15.3043 9.05435 14.6304 8.66304 12.8478 8.66304C10.8478 8.66304 10.6087 9.3587 10.6087 9.88043C10.6087 10.5109 10.8913 10.7065 13.587 11.0543C16.2609 11.4022 17.5217 11.9022 17.5217 13.7717C17.5 15.6848 15.9348 16.7717 13.1739 16.7717Z" fill="#539E43"/>
</g>
<defs>
<clipPath id="clip0_1437_669">
<rect width="21" height="23.707" fill="white"/>
</clipPath>
</defs>
</svg>
