<svg xmlns="http://www.w3.org/2000/svg" viewBox="0 0 559.44 313.27"><defs><style>.cls-1{fill:#ff6201;}</style></defs><g id="Calque_2" data-name="Calque 2"><g id="Calque_1-2" data-name="Calque 1"><path class="cls-1" d="M425,35.83h-.26"/><path class="cls-1" d="M361.87,82.11v34.05h0v93.69H303.5V151c-24.57,26.16-46.88,62-61.85,88.5-.19.39-.37.71-.56,1.08L223.4,275.36H186.05l-.18-.43c-.19-.33-.38-.77-.7-1.34-1.39-2.84-4.42-9-8.71-17.19-.13-.17-.26-.43-.39-.62-14-26.28-41-73.41-71.39-105.7v96.85c0,42.77,46.69,66.21,46.69,66.21H0s46.69-23.44,46.69-66.21V82C46.69,29.48,0,.67,0,.67H46.69c12.32,0,25,5.17,37.46,13.76,10.49,7.2,20.79,16.74,30.77,27.73,26,28.56,49.41,66.47,65.83,96,.06.13.06.19.13.26,12.51,22.43,20.91,40,23.11,44.85.2.32.26.63.39.82l27.23-52,.06-.07c16.48-29.12,39.1-64.75,63.94-91.55,9.48-10.3,19.32-19.26,29.25-26.09C337.18,6,349.68.85,361.87.74h46.7S361.87,29.54,361.87,82.11Z"/><path class="cls-1" d="M416.87,49.49c.25-1,.51-2,.83-3a6.49,6.49,0,0,1,.5-1.46,11.81,11.81,0,0,1,.56-1.45c.45-1.07.95-2.21,1.53-3.29a75,75,0,0,1,9.48-13.77c1.25-1.52,2.52-3,3.85-4.37,9.09-9.91,18.86-16.73,22.91-19.83.45-.31.88-.7,1.33-1l.56-.37c2.25-1.47,5.28-.84,7.38-.35,32.35,7.49,58.48,21.51,76.56,45.17,9.48,12.44,11.94,28.18,11.94,43.71,0,19.59-5.56,37.1-16.49,52A71.8,71.8,0,0,1,524.1,155.5c1.19,1,20.26,18.74,26.11,29.77a77.72,77.72,0,0,1,9.23,36.45,99.73,99.73,0,0,1-5.81,33.74,78.64,78.64,0,0,1-19.91,30.33c-8.91,8.59-20.65,15.42-34.81,20.33-13.64,4.74-30.39,7.15-49.65,7.15H304v-.13H257.32S304,289.71,304,246.93V230.57H362v28.12h87.31c19.32,0,33.17-3.73,40.18-10.69,7.19-7.13,10.68-16.11,10.68-27.42,0-11.12-3.6-19.39-11.38-25.89-8.46-7.09-21.73-10.62-39.48-10.62l-33.07-.65c1.39,0,2.79-.1,4.18-.1q8.52-.31,17-.55l2.82-.09c1.3,0,2.61,0,3.92-.08-1.3,0-2.61,0-3.92.08l-3.2,0c-3,.06-6,.08-9,.19a1.15,1.15,0,0,1-.24,0l-2.62.16-2.46.09q-4.1.19-8.38.2l1.9,0q-.94,0-1.89,0h-.15v-54l34.89.82c14.48,0,26-3.55,34.88-10.74,8-6.57,11.69-15.67,11.69-28.68,0-11.63-5.76-21.78-17.23-29.43-8.61-5.73-17.51-8.21-45.71-7.55-5.31.11-9.73.13-16.24.07h-.06a12,12,0,0,1,.06-1.47A26.79,26.79,0,0,1,416.87,49.49Z"/><path class="cls-1" d="M440.22,182.68l-2.82.09q-8.52.22-17,.55c-1.39,0-2.79.06-4.18.1l-1.9,0q4.29,0,8.38-.2l2.46-.09,2.62-.16a1.15,1.15,0,0,0,.24,0c3-.11,6-.13,9-.19Z"/><path class="cls-1" d="M440.22,182.68l-2.82.09q-8.52.22-17,.55c-1.39,0-2.79.06-4.18.1l-1.9,0q4.29,0,8.38-.2l2.46-.09,2.62-.16a1.15,1.15,0,0,0,.24,0c3-.11,6-.13,9-.19Z"/></g></g></svg>